<?xml version="1.0" standalone="no"?>
<!DOCTYPE svg PUBLIC "-//W3C//DTD SVG 20010904//EN"
 "http://www.w3.org/TR/2001/REC-SVG-20010904/DTD/svg10.dtd">
<svg version="1.0" xmlns="http://www.w3.org/2000/svg"
 width="500.000000pt" height="500.000000pt" viewBox="0 0 500.000000 500.000000"
 preserveAspectRatio="xMidYMid meet">
<metadata>
Created by potrace 1.11, written by Peter Selinger 2001-2013
</metadata>
<g transform="translate(0.000000,500.000000) scale(0.100000,-0.100000)"
fill="#000000" stroke="none">
<path d="M0 2500 l0 -2500 2500 0 2500 0 0 2500 0 2500 -2500 0 -2500 0 0
-2500z m2425 1411 c-4 -20 -2 -30 9 -34 8 -3 17 -3 19 1 2 4 3 2 1 -4 -1 -6 2
-16 7 -21 6 -6 -6 -10 -33 -11 -46 -2 -62 12 -47 40 6 10 7 23 4 28 -9 15 4
30 26 30 17 0 20 -4 14 -29z m195 22 c-8 -2 -22 -7 -30 -10 -11 -3 -8 -10 14
-28 37 -30 30 -56 -16 -53 l-33 1 33 4 c39 5 40 15 5 41 -33 24 -26 52 14 51
15 0 21 -3 13 -6z m106 -50 l18 -48 8 39 c12 56 22 60 13 6 -10 -65 -22 -71
-42 -22 -19 49 -33 54 -33 13 0 -17 -5 -33 -10 -36 -7 -4 -9 3 -5 19 3 14 7
37 10 51 8 37 20 30 41 -22z m-477 30 c-14 -3 -15 -11 -8 -41 11 -48 11 -74
-1 -47 -5 11 -11 32 -14 48 -4 16 -13 27 -24 28 -14 0 -14 2 3 9 11 5 29 8 40
8 15 0 16 -1 4 -5z m621 -52 c0 -22 3 -46 6 -55 3 -9 1 -16 -5 -16 -6 0 -11 9
-11 20 0 15 -7 20 -25 20 -14 0 -25 -4 -25 -10 0 -5 -5 -10 -11 -10 -5 0 4 20
22 45 18 25 36 45 41 45 4 0 8 -18 8 -39z m-711 -25 c6 -22 8 -42 6 -44 -2 -3
-21 10 -41 27 -20 18 -38 30 -40 28 -2 -2 1 -18 7 -36 6 -18 9 -34 6 -37 -7
-7 -35 88 -30 99 3 4 20 -6 40 -23 19 -17 37 -30 39 -27 2 2 -1 18 -6 37 -5
19 -6 29 -1 24 5 -5 14 -27 20 -48z m825 21 c27 -20 17 -52 -17 -52 -15 -1
-34 -10 -43 -20 -9 -12 -13 -14 -10 -5 2 8 10 32 17 53 13 40 24 45 53 24z
m-991 -20 c-29 -16 -15 -42 18 -33 l24 6 -22 -11 c-25 -13 -27 -18 -14 -38 7
-10 13 -11 30 -2 11 7 21 8 21 2 0 -8 -49 -26 -55 -19 -6 6 -35 81 -35 88 0 5
8 11 18 13 32 9 37 6 15 -6z m1103 -23 c18 -15 18 -15 -3 -9 -34 9 -48 -3 -28
-25 35 -38 0 -77 -40 -45 -19 16 -19 16 4 5 34 -17 47 1 26 34 -14 21 -15 29
-5 41 16 19 21 19 46 -1z m-1171 -50 c15 -25 24 -48 22 -51 -3 -3 -15 12 -27
34 l-21 38 5 -47 c6 -54 0 -59 -34 -23 -30 32 -36 26 -15 -14 8 -17 12 -31 7
-31 -13 0 -52 89 -42 95 5 3 11 1 15 -4 3 -6 18 -19 33 -29 l27 -20 -3 49 c-2
27 -2 49 1 49 3 0 17 -21 32 -46z m1235 -3 c-8 -16 -6 -23 11 -35 20 -14 23
-13 40 7 29 35 22 12 -12 -41 -27 -42 -31 -42 -14 1 4 8 -5 18 -19 25 -22 10
-27 9 -37 -9 -6 -11 -13 -19 -16 -16 -5 6 44 87 52 87 3 0 1 -9 -5 -19z
m-1366 -78 c29 -59 -25 -103 -70 -58 -28 28 -30 47 -8 69 25 25 61 20 78 -11z
m1526 -3 c21 -21 18 -42 -8 -72 -19 -22 -40 -23 -64 -1 -24 21 -23 44 2 71 26
27 44 28 70 2z m-1641 -81 c18 -21 29 -39 23 -39 -6 0 -20 12 -31 26 -23 29
-27 21 -11 -22 14 -35 8 -39 -29 -20 -42 22 -48 20 -21 -9 13 -14 21 -27 18
-30 -3 -3 -20 12 -37 33 -37 47 -30 59 16 31 41 -26 49 -20 34 22 -21 62 -11
64 38 8z m1742 4 c19 -21 20 -25 6 -20 -13 5 -26 -2 -44 -23 -13 -17 -30 -30
-36 -30 -6 0 4 16 23 35 28 29 31 37 20 50 -22 26 5 16 31 -12z m-984 -940 c4
-11 -41 -23 -88 -23 -32 0 -35 -7 -17 -45 10 -22 9 -28 -3 -36 -10 -6 -8 -9
12 -9 19 0 31 9 48 40 12 22 29 40 37 40 19 0 18 -6 -7 -46 l-21 -34 31 0 c29
0 31 -3 31 -35 0 -24 -5 -35 -15 -35 -8 0 -15 9 -15 20 0 19 -7 20 -110 20
-103 0 -110 -1 -110 -20 0 -11 -7 -20 -15 -20 -10 0 -15 11 -15 35 0 31 3 35
26 35 21 0 25 3 19 18 -16 39 -17 52 -3 52 17 0 41 -46 33 -61 -4 -5 8 -9 25
-9 30 0 32 2 25 27 -3 15 -7 32 -8 38 -1 5 -26 12 -55 15 -90 9 -64 25 52 32
60 4 111 10 114 13 8 8 25 1 29 -12z m263 -83 l0 -80 -65 0 -64 0 -3 -127 c-3
-112 -5 -128 -20 -131 -17 -3 -18 12 -18 207 l0 211 85 0 85 0 0 -80z m220
-120 l0 -200 -26 -10 c-41 -16 -71 -12 -77 10 -4 17 0 20 34 20 l39 0 0 110 0
110 -70 0 -70 0 0 80 0 80 85 0 85 0 0 -200z m-758 53 l3 -138 34 67 c31 62
51 79 51 43 0 -15 44 -22 97 -17 20 3 33 10 36 23 7 25 27 25 27 0 0 -12 8
-21 22 -23 30 -4 34 -26 6 -30 -19 -2 -23 -9 -23 -38 0 -29 4 -36 23 -38 28
-4 24 -26 -6 -30 -19 -3 -22 -10 -22 -49 0 -58 -24 -54 -28 5 -3 39 -5 42 -32
42 -16 0 -31 4 -34 8 -9 15 6 82 19 82 7 0 10 -11 7 -30 -4 -25 -1 -30 17 -30
18 0 21 6 21 41 0 40 0 40 -36 37 -34 -3 -38 -7 -56 -56 -27 -73 -118 -166
-118 -121 0 7 16 28 36 47 32 31 34 36 20 51 -22 25 -20 32 8 25 20 -5 25 0
34 25 10 29 9 31 -13 31 -17 0 -30 -11 -46 -40 -14 -24 -28 -39 -36 -36 -9 4
-13 -3 -13 -19 0 -23 -4 -25 -45 -25 -38 0 -45 -3 -45 -20 0 -11 -4 -20 -10
-20 -6 0 -10 68 -10 185 l0 185 55 0 54 0 3 -137z m-1002 -15 c42 -46 8 -118
-56 -118 -35 0 -74 37 -74 70 0 10 9 29 21 44 27 34 79 36 109 4z m2787 0 c29
-27 29 -57 2 -92 -41 -52 -129 -19 -129 48 0 59 82 87 127 44z m-1137 -123 l0
-85 -70 0 c-56 0 -70 -3 -70 -15 0 -8 -7 -15 -15 -15 -12 0 -15 18 -15 100 l0
100 85 0 85 0 0 -85z m-710 -1145 c17 5 28 5 25 0 -3 -5 4 -11 15 -15 11 -4
17 -11 14 -17 -4 -7 -9 -6 -14 2 -4 7 -13 9 -20 5 -10 -6 -9 -11 3 -20 15 -11
15 -14 -3 -30 -16 -15 -18 -21 -7 -34 10 -14 10 -14 -3 -4 -8 6 -36 14 -62 18
-42 6 -45 9 -33 22 18 18 19 30 3 36 -8 3 -5 6 5 6 12 1 17 7 15 19 -5 26 15
45 24 21 6 -15 12 -16 38 -9z m873 -7 c-3 -7 -1 -13 4 -13 5 0 14 -15 20 -34
9 -29 8 -35 -6 -39 -9 -3 -24 -8 -33 -12 -13 -5 -18 -2 -18 9 0 8 6 13 13 11
16 -6 44 12 34 22 -5 4 -11 3 -15 -2 -4 -6 -15 -11 -24 -11 -17 -2 -23 13 -19
44 1 6 -3 12 -8 12 -19 0 -22 -20 -7 -42 19 -26 21 -54 5 -64 -8 -4 -9 1 -4
17 l8 24 -23 -20 -23 -20 19 30 c16 26 17 28 1 16 -20 -15 -23 -2 -4 18 10 11
9 13 -5 8 -12 -4 -18 -1 -18 7 0 8 -5 16 -10 18 -6 2 -1 9 11 16 12 8 18 9 14
3 -9 -16 11 -14 27 2 7 8 19 12 26 9 6 -2 12 4 12 13 0 13 2 13 14 3 7 -7 11
-19 9 -25z m-695 -27 c28 -4 42 -16 19 -16 -9 0 -17 -5 -17 -11 0 -5 5 -7 10
-4 6 3 10 1 10 -4 0 -6 -6 -11 -12 -12 -7 0 -4 -5 7 -10 16 -7 14 -9 -12 -6
-18 2 -30 0 -27 -5 3 -4 -5 -8 -18 -9 -22 0 -22 -1 -3 -9 18 -8 18 -9 -5 -10
l-25 -2 25 -8 c14 -4 32 -8 40 -9 13 -1 13 0 0 9 -13 9 -13 10 0 10 13 0 13 1
0 10 -13 8 -12 10 3 10 12 0 17 -8 17 -26 0 -24 -3 -26 -31 -20 -17 3 -38 6
-45 6 -8 0 -14 9 -14 19 0 11 -6 22 -12 24 -8 3 -6 6 5 6 20 1 23 17 5 24 -7
2 -3 2 10 0 12 -2 22 1 22 7 0 5 -8 10 -17 10 -14 0 -15 2 -4 9 11 7 10 11 -5
19 -19 11 -20 11 74 -2z m516 -6 c20 0 24 -7 30 -46 7 -51 2 -64 -22 -64 -14
0 -14 1 0 13 19 14 13 87 -7 87 -24 0 -45 -36 -39 -67 5 -27 3 -31 -19 -35
-23 -4 -26 -1 -35 44 -5 26 -5 48 -1 48 5 0 9 8 10 18 0 14 2 14 9 -3 5 -11 9
-16 9 -11 1 5 8 3 16 -4 13 -11 15 -8 16 16 0 16 3 23 6 17 2 -7 15 -13 27
-13z m-401 -33 c-4 -21 -4 -21 16 3 11 14 21 19 21 13 0 -7 11 -13 25 -13 22
0 25 -4 25 -32 0 -50 -11 -78 -29 -78 -12 0 -13 2 -3 9 8 4 16 27 19 50 6 41
5 41 -26 41 -17 0 -31 -4 -31 -10 0 -5 9 -10 20 -10 15 0 20 -7 20 -25 0 -18
-5 -25 -20 -25 -15 0 -20 7 -20 25 0 14 -4 25 -10 25 -5 0 -10 -11 -10 -24 0
-36 -10 -56 -29 -56 -14 1 -14 2 2 11 9 5 17 19 17 31 0 18 -2 19 -17 7 -17
-13 -17 -13 0 7 9 11 17 26 17 32 0 7 -7 9 -17 5 -15 -6 -16 -4 -6 9 7 8 11
17 8 19 -2 3 4 5 14 6 14 1 18 -4 14 -20z m207 14 c0 -4 11 -6 25 -3 25 4 35
-11 15 -23 -5 -3 -10 -2 -10 4 0 6 -7 8 -15 5 -22 -9 -18 -24 6 -24 15 0 19
-4 15 -15 -3 -8 -9 -21 -12 -29 -3 -8 3 -16 17 -19 13 -4 21 -9 17 -12 -3 -3
-16 -1 -30 4 -15 5 -30 6 -39 0 -8 -5 -21 -9 -29 -8 -10 0 -7 4 7 12 18 10 20
15 9 30 -18 24 -23 22 -30 -15 -9 -47 -15 -30 -9 30 5 42 9 52 24 52 11 0 19
5 19 10 0 6 5 10 10 10 6 0 10 -4 10 -9z m191 -38 c13 -16 12 -17 -3 -4 -10 7
-18 15 -18 17 0 8 8 3 21 -13z"/>
<path d="M2392 3919 c2 -6 8 -10 13 -10 5 0 11 4 13 10 2 6 -4 11 -13 11 -9 0
-15 -5 -13 -11z"/>
<path d="M2397 3883 c-14 -13 -6 -33 13 -33 11 0 20 4 20 9 0 13 -26 32 -33
24z"/>
<path d="M2842 3868 c-16 -16 -15 -28 3 -28 8 0 15 9 15 20 0 23 -2 24 -18 8z"/>
<path d="M2947 3839 c-6 -23 18 -38 35 -21 8 8 8 15 -2 27 -17 20 -27 19 -33
-6z"/>
<path d="M1720 3685 c-10 -12 -9 -20 4 -41 22 -32 59 -30 64 4 7 44 -41 70
-68 37z"/>
<path d="M3259 3669 c-23 -23 -22 -47 3 -63 13 -8 22 -6 37 8 24 21 27 46 9
64 -17 17 -25 15 -49 -9z"/>
<path d="M2570 2610 c0 -17 7 -20 50 -20 43 0 50 3 50 20 0 17 -7 20 -50 20
-43 0 -50 -3 -50 -20z"/>
<path d="M2570 2550 c0 -17 7 -20 50 -20 43 0 50 3 50 20 0 17 -7 20 -50 20
-43 0 -50 -3 -50 -20z"/>
<path d="M2780 2609 c0 -18 5 -20 52 -17 41 2 54 7 56 21 3 14 -5 17 -52 17
-50 0 -56 -2 -56 -21z"/>
<path d="M2782 2548 c3 -20 9 -23 53 -23 44 0 50 3 53 23 3 21 0 22 -53 22
-53 0 -56 -1 -53 -22z"/>
<path d="M2072 2588 c2 -28 8 -34 31 -36 25 -3 27 -1 27 32 0 33 -2 36 -31 36
-28 0 -30 -2 -27 -32z"/>
<path d="M2070 2490 c0 -27 3 -30 30 -30 27 0 30 3 30 30 0 27 -3 30 -30 30
-27 0 -30 -3 -30 -30z"/>
<path d="M2072 2388 c2 -28 8 -34 31 -36 25 -3 27 -1 27 32 0 33 -2 36 -31 36
-28 0 -30 -2 -27 -32z"/>
<path d="M2670 2410 c0 -18 7 -20 55 -20 48 0 55 2 55 20 0 18 -7 20 -55 20
-48 0 -55 -2 -55 -20z"/>
<path d="M2670 2340 c0 -18 7 -20 55 -20 48 0 55 2 55 20 0 18 -7 20 -55 20
-48 0 -55 -2 -55 -20z"/>
<path d="M2054 1205 c3 -8 1 -15 -3 -15 -15 0 -22 -33 -9 -42 23 -14 38 -8 38
15 -1 22 -1 22 -17 2 l-16 -20 8 20 c16 43 17 55 5 55 -7 0 -10 -7 -6 -15z"/>
<path d="M2082 1209 c2 -6 8 -10 13 -10 5 0 11 4 13 10 2 6 -4 11 -13 11 -9 0
-15 -5 -13 -11z"/>
<path d="M2090 1164 c0 -17 22 -14 28 4 2 7 -3 12 -12 12 -9 0 -16 -7 -16 -16z"/>
<path d="M2940 1210 c0 -5 5 -10 10 -10 6 0 10 5 10 10 0 6 -4 10 -10 10 -5 0
-10 -4 -10 -10z"/>
<path d="M2960 1189 c0 -5 -4 -7 -10 -4 -5 3 -10 1 -10 -4 0 -13 3 -13 24 -5
18 7 22 24 6 24 -5 0 -10 -5 -10 -11z"/>
<path d="M2240 1180 c20 -13 33 -13 25 0 -3 6 -14 10 -23 10 -15 0 -15 -2 -2
-10z"/>
<path d="M2248 1153 c7 -3 16 -2 19 1 4 3 -2 6 -13 5 -11 0 -14 -3 -6 -6z"/>
<path d="M2710 1144 c0 -9 5 -14 12 -12 18 6 21 28 4 28 -9 0 -16 -7 -16 -16z"/>
<path d="M2723 1123 c-16 -6 -5 -33 13 -33 8 0 14 6 14 14 0 18 -11 25 -27 19z"/>
<path d="M2420 1105 c0 -8 5 -15 10 -15 6 0 10 7 10 15 0 8 -4 15 -10 15 -5 0
-10 -7 -10 -15z"/>
<path d="M2550 1134 c0 -9 7 -14 17 -12 25 5 28 28 4 28 -12 0 -21 -6 -21 -16z"/>
<path d="M2585 1111 c-3 -5 -1 -12 5 -16 12 -7 30 2 30 16 0 12 -27 12 -35 0z"/>
</g>
</svg>
